<!--?xml version="1.0" encoding="utf-8"?-->
<!-- Generator: Adobe Illustrator 18.1.1, SVG Export Plug-In . SVG Version: 6.00 Build 0)  -->

<svg version="1.1" id="_x31_0" xmlns="http://www.w3.org/2000/svg" xmlns:xlink="http://www.w3.org/1999/xlink" x="0px" y="0px" viewBox="0 0 512 512" style="width: 32px; height: 32px; opacity: 1;" xml:space="preserve">
<style type="text/css">
	.st0{fill:#374149;}
</style>
<g>
	<path class="st0" d="M256,0C114.558,0,0,114.558,0,256c0,141.359,114.558,256,256,256c141.359,0,256-114.641,256-256
		C512,114.558,397.359,0,256,0z M403.359,354.801c-2.961,11.68-28.402,49.84-49.679,49.84h-0.883
		c-5.598-0.321-14.797-3.282-28.961-9.359c-93.278-40.242-166.797-113.84-207.118-207.122c-6.16-14.16-9.121-23.359-9.359-29.039
		c-0.961-21.519,37.68-47.519,49.758-50.64c3.122-0.719,6.321-1.199,9.602-1.199c12.161,0,23.438,5.519,30.879,15.117l20,25.68
		c11.762,15.121,10.961,36.402-2,50.562c-3.442,3.758-8.16,8.718-11.918,11.84c0.797,8.718,28.558,42.48,42.156,55.519
		c11.602,12.078,45.922,41.121,55.602,42.238c2.48-3.039,6.48-7.039,11.84-11.918c7.199-6.64,16.64-10.32,26.48-10.32
		c8.719,0,17.199,2.961,24.078,8.238l25.683,20C401.758,323.84,407.199,339.762,403.359,354.801z" style="fill: rgb(253, 249, 244);"></path>
</g>
</svg>
